<svg width="40" height="40" viewBox="0 0 40 40" fill="none" xmlns="http://www.w3.org/2000/svg">
<path d="M26.9834 3.33337H13.0167C6.95004 3.33337 3.33337 6.95004 3.33337 13.0167V26.9667C3.33337 33.05 6.95004 36.6667 13.0167 36.6667H26.9667C33.0334 36.6667 36.65 33.05 36.65 26.9834V13.0167C36.6667 6.95004 33.05 3.33337 26.9834 3.33337ZM24.65 20.8834L18.7667 26.7667C18.5167 27.0167 18.2 27.1334 17.8834 27.1334C17.5667 27.1334 17.25 27.0167 17 26.7667C16.5167 26.2834 16.5167 25.4834 17 25L22 20L17 15C16.5167 14.5167 16.5167 13.7167 17 13.2334C17.4834 12.75 18.2834 12.75 18.7667 13.2334L24.65 19.1167C25.15 19.6 25.15 20.4 24.65 20.8834Z" fill="white"/>
</svg>
